<svg width="25" height="24" viewBox="0 0 25 24" fill="none" xmlns="http://www.w3.org/2000/svg">
<path fill-rule="evenodd" clip-rule="evenodd" d="M1.11902 24H0.119019V22H1.11702L1.13102 13H5.11902V10H7.11902V13H9.11902V10H11.119V13H13.119V10H15.119V13H17.119V10H19.119V13H23.119V22H24.119V24H1.11902ZM21.119 17H3.11902V22H5.11902V19C5.11902 18.448 5.56702 18 6.11902 18C6.67102 18 7.11902 18.448 7.11902 19V22H9.11902V19C9.11902 18.448 9.56702 18 10.119 18C10.671 18 11.119 18.448 11.119 19V22H13.119V19C13.119 18.448 13.567 18 14.119 18C14.671 18 15.119 18.448 15.119 19V22H17.119V19C17.119 18.448 17.567 18 18.119 18C18.671 18 19.119 18.448 19.119 19V22H21.119V17ZM15.119 2H12.119V3C15.085 3 18.277 4.979 19.119 9H5.11902C5.66602 5.22 8.75702 3.173 11.119 3V0H15.119V2Z" fill="#001933"/>
</svg>
