<svg width="182" height="38" viewBox="0 0 182 38" fill="none" xmlns="http://www.w3.org/2000/svg">
<g clip-path="url(#clip0)">
<path d="M0 0.996918H12.2614C17.3866 0.996918 21.3871 2.35929 24.2631 5.08404C27.139 7.80879 28.5763 11.2069 28.5749 15.2783C28.5749 19.3498 27.1376 22.7479 24.2631 25.4726C21.3886 28.1974 17.388 29.559 12.2614 29.5576H8.82743V37.2167H0V0.996918ZM8.83172 21.2209H12.9353C14.9785 21.2209 16.7019 20.7221 18.1056 19.7246C19.5092 18.727 20.2103 17.2435 20.2089 15.2741C20.2089 13.3773 19.4992 11.9023 18.0798 10.8492C16.6604 9.79606 14.9435 9.2702 12.9289 9.27163H8.83172V21.2209Z" fill="#001933"/>
<path d="M46.88 18.8033H43.5684C41.7799 18.8033 40.3677 19.3733 39.3317 20.5134C38.2958 21.6534 37.7764 23.2495 37.7736 25.3016V37.4668H29.5686V11.2575H34.9835L35.93 16.174C38.1048 12.6455 41.297 10.8813 45.5064 10.8813H46.8736L46.88 18.8033Z" fill="#001933"/>
<path d="M59.3496 10.8898C63.1026 10.8898 66.2948 12.2087 68.9261 14.8465C71.5573 17.4843 72.873 20.6551 72.873 24.3589C72.9007 26.1249 72.5648 27.8778 71.886 29.5094C71.2071 31.1411 70.1998 32.6168 68.9261 33.8457C66.2948 36.4664 63.1026 37.7767 59.3496 37.7767C55.5966 37.7767 52.4109 36.4657 49.7925 33.8435C48.5258 32.6108 47.525 31.1337 46.8512 29.5025C46.1773 27.8713 45.8446 26.1204 45.8734 24.3568C45.8734 20.6188 47.1891 17.4395 49.8204 14.8187C51.0548 13.55 52.5373 12.5468 54.1763 11.871C55.8153 11.1953 57.576 10.8613 59.3496 10.8898ZM63.0325 20.3231C62.0557 19.3504 60.7309 18.8039 59.3496 18.8039C57.9683 18.8039 56.6435 19.3504 55.6667 20.3231C54.6122 21.3363 54.0849 22.6816 54.0849 24.3589C54.0849 26.0362 54.6114 27.373 55.6645 28.3691C56.6495 29.3264 57.9712 29.8623 59.3474 29.8623C60.7237 29.8623 62.0454 29.3264 63.0304 28.3691C64.0835 27.3715 64.61 26.0348 64.61 24.3589C64.61 22.683 64.0842 21.3378 63.0325 20.3231Z" fill="#001933"/>
<path d="M82.7628 0.774597V12.3562C84.3961 11.3724 86.2734 10.8637 88.182 10.8877C91.8649 10.8877 94.8904 12.1888 97.2584 14.791C99.6264 17.3931 100.81 20.581 100.81 24.3546C100.81 28.1283 99.6264 31.3076 97.2584 33.8927C94.8904 36.4778 91.8649 37.7703 88.182 37.7703C85.1301 37.7703 82.5546 36.8098 80.4556 34.8888L79.9813 37.454H74.5556V0.774597H82.7628ZM87.3514 18.8033C86.6728 18.8054 86.0013 18.9407 85.3752 19.2015C84.7492 19.4623 84.1809 19.8434 83.7028 20.3231C82.6326 21.3363 82.0974 22.6816 82.0974 24.3589C82.0974 26.0362 82.6326 27.373 83.7028 28.3691C84.6827 29.3263 86.0004 29.8625 87.3729 29.8625C88.7454 29.8625 90.0631 29.3263 91.0429 28.3691C92.096 27.3715 92.6225 26.0348 92.6225 24.3589C92.6225 22.683 92.096 21.3378 91.0429 20.3231C90.5607 19.837 89.9856 19.4521 89.3516 19.1911C88.7176 18.9301 88.0375 18.7982 87.3514 18.8033Z" fill="#001933"/>
<path d="M101.759 37.4668V0.774597H110.02V37.4668H101.759Z" fill="#001933"/>
<path d="M124.696 10.8898C130.169 10.8898 133.975 13.1436 136.114 17.6511C136.778 19.0808 137.129 20.6352 137.144 22.2106C137.197 23.9578 136.978 25.4598 136.487 26.7167H119.974C119.96 27.2398 120.081 27.7578 120.325 28.2212C120.569 28.6845 120.929 29.0777 121.369 29.3631C122.298 30.0101 123.429 30.3336 124.762 30.3336C127.266 30.358 129.751 29.8955 132.077 28.9719L136.339 33.6362C132.583 36.3951 128.721 37.7746 124.752 37.7746C120.858 37.7746 117.675 36.492 115.201 33.9269C112.727 31.3618 111.491 28.1739 111.492 24.3632C111.492 20.5155 112.685 17.3091 115.07 14.7439C117.455 12.1788 120.664 10.8941 124.696 10.8898ZM124.696 18.3843C123.432 18.3843 122.389 18.7249 121.564 19.4061C120.74 20.0873 120.311 20.8119 120.277 21.58H129.063C129.046 21.0136 128.822 20.473 128.432 20.0602C127.627 18.9429 126.381 18.3843 124.696 18.3843Z" fill="#001933"/>
<path d="M170.477 10.8898C174.23 10.8898 177.092 12.0605 179.062 14.4019C181.032 16.7433 182.011 19.8713 182 23.786V37.4668H173.791V24.2542C173.791 22.2975 173.396 20.9003 172.606 20.0623C171.816 19.2244 170.65 18.8054 169.108 18.8054C165.951 18.8054 164.373 20.6744 164.373 24.4124V37.4518H156.164V24.2542C156.164 20.6202 154.621 18.8033 151.534 18.8033C148.376 18.8033 146.798 20.6722 146.798 24.4102V37.4497H138.59V11.2575H144.012L144.591 14.4019C146.416 12.0619 149.169 10.8912 152.852 10.8898C156.78 10.8898 159.762 12.2351 161.798 14.9256C163.549 12.2351 166.442 10.8898 170.477 10.8898Z" fill="#001933"/>
<path d="M8.82958 0.994781H0.0257568V21.1953H8.82958V0.994781Z" fill="url(#paint0_linear)"/>
<path d="M8.82958 29.5683H0.0257568V37.2167H8.82958V29.5683Z" fill="url(#paint1_linear)"/>
</g>
<defs>
<linearGradient id="paint0_linear" x1="-2.84375" y1="3.85277" x2="11.6406" y2="18.3955" gradientUnits="userSpaceOnUse">
<stop stop-color="#F90051"/>
<stop offset="1" stop-color="#D4189F"/>
</linearGradient>
<linearGradient id="paint1_linear" x1="12.6153" y1="1343.49" x2="303.431" y2="1008.74" gradientUnits="userSpaceOnUse">
<stop stop-color="#F90051"/>
<stop offset="1" stop-color="#D4189F"/>
</linearGradient>
<clipPath id="clip0">
<rect width="182" height="37" fill="white" transform="translate(0 0.774597)"/>
</clipPath>
</defs>
</svg>
